<svg xmlns="http://www.w3.org/2000/svg" xmlns:xlink="http://www.w3.org/1999/xlink" contentStyleType="text/css" data-diagram-type="CLASS" height="1627.5px" preserveAspectRatio="none" style="width:4908px;height:1627px;background:#FFFFFF;" version="1.1" viewBox="0 0 4908 1627" width="4908px" zoomAndPan="magnify"><defs/><g><!--cluster stockexchange--><g class="cluster" data-entity="stockexchange" data-source-line="7" data-uid="ent0004" id="cluster_stockexchange"><path d="M12.75,162 L191.2119,162 A5.625,5.625 0 0 1 194.9619,165.75 L205.4619,195.4453 L4893.75,195.4453 A3.75,3.75 0 0 1 4897.5,199.1953 L4897.5,1613.25 A3.75,3.75 0 0 1 4893.75,1617 L12.75,1617 A3.75,3.75 0 0 1 9,1613.25 L9,165.75 A3.75,3.75 0 0 1 12.75,162" fill="none" style="stroke:#000000;stroke-width:2.25;"/><line style="stroke:#000000;stroke-width:2.25;" x1="9" x2="205.4619" y1="195.4453" y2="195.4453"/><text fill="#000000" font-family="sans-serif" font-size="21" font-weight="bold" lengthAdjust="spacing" textLength="176.9619" x="15" y="184.4927">stockexchange</text></g><!--cluster stock--><g class="cluster" data-entity="stock" data-source-line="6" data-uid="ent0002" id="cluster_stock"><path d="M1983.75,616.5 L2048.6294,616.5 A5.625,5.625 0 0 1 2052.3794,620.25 L2062.8794,649.9453 L2829.75,649.9453 A3.75,3.75 0 0 1 2833.5,653.6953 L2833.5,1279.5 A3.75,3.75 0 0 1 2829.75,1283.25 L1983.75,1283.25 A3.75,3.75 0 0 1 1980,1279.5 L1980,620.25 A3.75,3.75 0 0 1 1983.75,616.5" fill="none" style="stroke:#000000;stroke-width:2.25;"/><line style="stroke:#000000;stroke-width:2.25;" x1="1980" x2="2062.8794" y1="649.9453" y2="649.9453"/><text fill="#000000" font-family="sans-serif" font-size="21" font-weight="bold" lengthAdjust="spacing" textLength="63.3794" x="1986" y="638.9927">stock</text></g><!--cluster investor--><g class="cluster" data-entity="investor" data-source-line="31" data-uid="ent0008" id="cluster_investor"><path d="M2873.25,702 L2972.1519,702 A5.625,5.625 0 0 1 2975.9019,705.75 L2986.4019,735.4453 L3225.75,735.4453 A3.75,3.75 0 0 1 3229.5,739.1953 L3229.5,896.25 A3.75,3.75 0 0 1 3225.75,900 L2873.25,900 A3.75,3.75 0 0 1 2869.5,896.25 L2869.5,705.75 A3.75,3.75 0 0 1 2873.25,702" fill="none" style="stroke:#000000;stroke-width:2.25;"/><line style="stroke:#000000;stroke-width:2.25;" x1="2869.5" x2="2986.4019" y1="735.4453" y2="735.4453"/><text fill="#000000" font-family="sans-serif" font-size="21" font-weight="bold" lengthAdjust="spacing" textLength="97.4019" x="2875.5" y="724.4927">investor</text></g><!--cluster order--><g class="cluster" data-entity="order" data-source-line="40" data-uid="ent0011" id="cluster_order"><path d="M3269.25,616.5 L3335.165,616.5 A5.625,5.625 0 0 1 3338.915,620.25 L3349.415,649.9453 L4140.75,649.9453 A3.75,3.75 0 0 1 4144.5,653.6953 L4144.5,1577.25 A3.75,3.75 0 0 1 4140.75,1581 L3269.25,1581 A3.75,3.75 0 0 1 3265.5,1577.25 L3265.5,620.25 A3.75,3.75 0 0 1 3269.25,616.5" fill="none" style="stroke:#000000;stroke-width:2.25;"/><line style="stroke:#000000;stroke-width:2.25;" x1="3265.5" x2="3349.415" y1="649.9453" y2="649.9453"/><text fill="#000000" font-family="sans-serif" font-size="21" font-weight="bold" lengthAdjust="spacing" textLength="64.415" x="3271.5" y="638.9927">order</text></g><!--cluster trigger--><g class="cluster" data-entity="trigger" data-source-line="89" data-uid="ent0024" id="cluster_trigger"><path d="M4184.25,666 L4268.0068,666 A5.625,5.625 0 0 1 4271.7568,669.75 L4282.2568,699.4453 L4857.75,699.4453 A3.75,3.75 0 0 1 4861.5,703.1953 L4861.5,1279.5 A3.75,3.75 0 0 1 4857.75,1283.25 L4184.25,1283.25 A3.75,3.75 0 0 1 4180.5,1279.5 L4180.5,669.75 A3.75,3.75 0 0 1 4184.25,666" fill="none" style="stroke:#000000;stroke-width:2.25;"/><line style="stroke:#000000;stroke-width:2.25;" x1="4180.5" x2="4282.2568" y1="699.4453" y2="699.4453"/><text fill="#000000" font-family="sans-serif" font-size="21" font-weight="bold" lengthAdjust="spacing" textLength="82.2568" x="4186.5" y="688.4927">trigger</text></g><!--cluster exchange--><g class="cluster" data-entity="exchange" data-source-line="108" data-uid="ent0030" id="cluster_exchange"><path d="M1125.75,226.5 L1240.8325,226.5 A5.625,5.625 0 0 1 1244.5825,230.25 L1255.0825,259.9453 L1940.25,259.9453 A3.75,3.75 0 0 1 1944,263.6953 L1944,869.25 A3.75,3.75 0 0 1 1940.25,873 L1125.75,873 A3.75,3.75 0 0 1 1122,869.25 L1122,230.25 A3.75,3.75 0 0 1 1125.75,226.5" fill="none" style="stroke:#000000;stroke-width:2.25;"/><line style="stroke:#000000;stroke-width:2.25;" x1="1122" x2="1255.0825" y1="259.9453" y2="259.9453"/><text fill="#000000" font-family="sans-serif" font-size="21" font-weight="bold" lengthAdjust="spacing" textLength="113.5825" x="1128" y="248.9927">exchange</text></g><!--cluster notification--><g class="cluster" data-entity="notification" data-source-line="129" data-uid="ent0036" id="cluster_notification"><path d="M48.75,253.5 L186.4321,253.5 A5.625,5.625 0 0 1 190.1821,257.25 L200.6821,286.9453 L1082.25,286.9453 A3.75,3.75 0 0 1 1086,290.6953 L1086,539.25 A3.75,3.75 0 0 1 1082.25,543 L48.75,543 A3.75,3.75 0 0 1 45,539.25 L45,257.25 A3.75,3.75 0 0 1 48.75,253.5" fill="none" style="stroke:#000000;stroke-width:2.25;"/><line style="stroke:#000000;stroke-width:2.25;" x1="45" x2="200.6821" y1="286.9453" y2="286.9453"/><text fill="#000000" font-family="sans-serif" font-size="21" font-weight="bold" lengthAdjust="spacing" textLength="136.1821" x="51" y="275.9927">notification</text></g><!--class StockSubject--><g class="entity" data-entity="StockSubject" data-source-line="7" data-uid="ent0003" id="entity_StockSubject"><rect fill="#F1F1F1" height="120.8906" rx="3.75" ry="3.75" style="stroke:#181818;stroke-width:0.75;" width="441.5479" x="2004" y="1137.75"/><ellipse cx="2140.8794" cy="1161.75" fill="#B4A7E5" rx="16.5" ry="16.5" style="stroke:#181818;stroke-width:1.5;"/><path d="M2134.7622,1155.3984 L2134.7622,1152.1641 L2145.8481,1152.1641 L2145.8481,1155.3984 L2142.145,1155.3984 L2142.145,1167.5156 L2145.8481,1167.5156 L2145.8481,1170.75 L2134.7622,1170.75 L2134.7622,1167.5156 L2138.4653,1167.5156 L2138.4653,1155.3984 L2134.7622,1155.3984 Z " fill="#000000"/><text fill="#000000" font-family="sans-serif" font-size="21" font-style="italic" font-weight="bold" lengthAdjust="spacing" textLength="155.0391" x="2171.6294" y="1169.02">StockSubject</text><line style="stroke:#181818;stroke-width:0.75;" x1="2005.5" x2="2444.0479" y1="1185.75" y2="1185.75"/><line style="stroke:#181818;stroke-width:0.75;" x1="2005.5" x2="2444.0479" y1="1197.75" y2="1197.75"/><text fill="#000000" font-family="sans-serif" font-size="21" lengthAdjust="spacing" textLength="418.4004" x="2013" y="1223.2427">+attach(observer: StockObserver): Unit</text><text fill="#000000" font-family="sans-serif" font-size="21" lengthAdjust="spacing" textLength="423.5479" x="2013" y="1247.688">+detach(observer: StockObserver): Unit</text></g><!--class StockObserver--><g class="entity" data-entity="StockObserver" data-source-line="12" data-uid="ent0005" id="entity_StockObserver"><rect fill="#F1F1F1" height="96.4453" rx="3.75" ry="3.75" style="stroke:#181818;stroke-width:0.75;" width="310.0723" x="2498.25" y="1150.5"/><ellipse cx="2560.2586" cy="1174.5" fill="#B4A7E5" rx="16.5" ry="16.5" style="stroke:#181818;stroke-width:1.5;"/><path d="M2554.1414,1168.1484 L2554.1414,1164.9141 L2565.2273,1164.9141 L2565.2273,1168.1484 L2561.5242,1168.1484 L2561.5242,1180.2656 L2565.2273,1180.2656 L2565.2273,1183.5 L2554.1414,1183.5 L2554.1414,1180.2656 L2557.8445,1180.2656 L2557.8445,1168.1484 L2554.1414,1168.1484 Z " fill="#000000"/><text fill="#000000" font-family="sans-serif" font-size="21" font-style="italic" font-weight="bold" lengthAdjust="spacing" textLength="174.2754" x="2590.0383" y="1181.77">StockObserver</text><line style="stroke:#181818;stroke-width:0.75;" x1="2499.75" x2="2806.8223" y1="1198.5" y2="1198.5"/><line style="stroke:#181818;stroke-width:0.75;" x1="2499.75" x2="2806.8223" y1="1210.5" y2="1210.5"/><text fill="#000000" font-family="sans-serif" font-size="21" lengthAdjust="spacing" textLength="292.0723" x="2507.25" y="1235.9927">+update(stock: Stock): Unit</text></g><!--class Stock--><g class="entity" data-entity="Stock" data-source-line="16" data-uid="ent0006" id="entity_Stock"><rect fill="#F1F1F1" height="292.0078" rx="3.75" ry="3.75" style="stroke:#181818;stroke-width:0.75;" width="462.0249" x="2347.5" y="669"/><ellipse cx="2539.1353" cy="693" fill="#ADD1B2" rx="16.5" ry="16.5" style="stroke:#181818;stroke-width:1.5;"/><path d="M2543.5884,701.4609 Q2542.7212,701.9063 2541.7603,702.1172 Q2540.7993,702.3516 2539.7446,702.3516 Q2535.9946,702.3516 2534.0024,699.8906 Q2532.0337,697.4063 2532.0337,692.7188 Q2532.0337,688.0313 2534.0024,685.5469 Q2535.9946,683.0625 2539.7446,683.0625 Q2540.7993,683.0625 2541.7603,683.2969 Q2542.7446,683.5313 2543.5884,683.9766 L2543.5884,688.0547 Q2542.6509,687.1875 2541.7603,686.7891 Q2540.8696,686.3672 2539.9321,686.3672 Q2537.9165,686.3672 2536.8853,687.9844 Q2535.854,689.5781 2535.854,692.7188 Q2535.854,695.8594 2536.8853,697.4766 Q2537.9165,699.0703 2539.9321,699.0703 Q2540.8696,699.0703 2541.7603,698.6719 Q2542.6509,698.25 2543.5884,697.3828 L2543.5884,701.4609 Z " fill="#000000"/><text fill="#000000" font-family="sans-serif" font-size="21" font-weight="bold" lengthAdjust="spacing" textLength="66.0044" x="2569.8853" y="700.27">Stock</text><line style="stroke:#181818;stroke-width:0.75;" x1="2349" x2="2808.0249" y1="717" y2="717"/><text fill="#000000" font-family="sans-serif" font-size="21" lengthAdjust="spacing" textLength="169.856" x="2356.5" y="742.4927">+symbol: String</text><text fill="#000000" font-family="sans-serif" font-size="21" lengthAdjust="spacing" textLength="278.7319" x="2356.5" y="766.938">+currentPrice: BigDecimal</text><text fill="#000000" font-family="sans-serif" font-size="21" lengthAdjust="spacing" textLength="310.8677" x="2356.5" y="791.3833">+currentOrders: List&lt;Order&gt;</text><text fill="#000000" font-family="sans-serif" font-size="21" lengthAdjust="spacing" textLength="433.6685" x="2356.5" y="815.8286">-observers: MutableSet&lt;StockObserver&gt;</text><text fill="#000000" font-family="sans-serif" font-size="21" lengthAdjust="spacing" textLength="305.1973" x="2356.5" y="840.2739">-orders: MutableList&lt;Order&gt;</text><line style="stroke:#181818;stroke-width:0.75;" x1="2349" x2="2808.0249" y1="851.2266" y2="851.2266"/><text fill="#000000" font-family="sans-serif" font-size="21" lengthAdjust="spacing" textLength="444.0249" x="2356.5" y="876.7192">+updatePrice(newPrice: BigDecimal): Unit</text><text fill="#000000" font-family="sans-serif" font-size="21" lengthAdjust="spacing" textLength="320.2192" x="2356.5" y="901.1646">+addOrder(order: Order): Unit</text><text fill="#000000" font-family="sans-serif" font-size="21" lengthAdjust="spacing" textLength="360.8965" x="2356.5" y="925.6099">+removeOrder(order: Order): Unit</text><text fill="#000000" font-family="sans-serif" font-size="21" lengthAdjust="spacing" textLength="273.8203" x="2356.5" y="950.0552">-notifyAllObservers(): Unit</text></g><!--class Investor--><g class="entity" data-entity="Investor" data-source-line="32" data-uid="ent0009" id="entity_Investor"><rect fill="#F1F1F1" height="120.8906" rx="3.75" ry="3.75" style="stroke:#181818;stroke-width:0.75;" width="310.0723" x="2894.25" y="754.5"/><ellipse cx="2993.9026" cy="778.5" fill="#ADD1B2" rx="16.5" ry="16.5" style="stroke:#181818;stroke-width:1.5;"/><path d="M2998.3557,786.9609 Q2997.4885,787.4063 2996.5276,787.6172 Q2995.5667,787.8516 2994.512,787.8516 Q2990.762,787.8516 2988.7698,785.3906 Q2986.801,782.9063 2986.801,778.2188 Q2986.801,773.5313 2988.7698,771.0469 Q2990.762,768.5625 2994.512,768.5625 Q2995.5667,768.5625 2996.5276,768.7969 Q2997.512,769.0313 2998.3557,769.4766 L2998.3557,773.5547 Q2997.4182,772.6875 2996.5276,772.2891 Q2995.637,771.8672 2994.6995,771.8672 Q2992.6838,771.8672 2991.6526,773.4844 Q2990.6213,775.0781 2990.6213,778.2188 Q2990.6213,781.3594 2991.6526,782.9766 Q2992.6838,784.5703 2994.6995,784.5703 Q2995.637,784.5703 2996.5276,784.1719 Q2997.4182,783.75 2998.3557,782.8828 L2998.3557,786.9609 Z " fill="#000000"/><text fill="#000000" font-family="sans-serif" font-size="21" font-weight="bold" lengthAdjust="spacing" textLength="98.0171" x="3024.6526" y="785.77">Investor</text><line style="stroke:#181818;stroke-width:0.75;" x1="2895.75" x2="3202.8223" y1="802.5" y2="802.5"/><text fill="#000000" font-family="sans-serif" font-size="21" lengthAdjust="spacing" textLength="153.5728" x="2903.25" y="827.9927">+name: String</text><line style="stroke:#181818;stroke-width:0.75;" x1="2895.75" x2="3202.8223" y1="838.9453" y2="838.9453"/><text fill="#000000" font-family="sans-serif" font-size="21" lengthAdjust="spacing" textLength="292.0723" x="2903.25" y="864.438">+update(stock: Stock): Unit</text></g><!--class OrderRequest--><g class="entity" data-entity="OrderRequest" data-source-line="41" data-uid="ent0012" id="entity_OrderRequest"><rect fill="#F1F1F1" height="145.3359" rx="3.75" ry="3.75" style="stroke:#181818;stroke-width:0.75;" width="220.812" x="3386.25" y="1411.5"/><ellipse cx="3412.2582" cy="1435.5" fill="#B4A7E5" rx="16.5" ry="16.5" style="stroke:#181818;stroke-width:1.5;"/><path d="M3406.141,1429.1484 L3406.141,1425.9141 L3417.2269,1425.9141 L3417.2269,1429.1484 L3413.5238,1429.1484 L3413.5238,1441.2656 L3417.2269,1441.2656 L3417.2269,1444.5 L3406.141,1444.5 L3406.141,1441.2656 L3409.8441,1441.2656 L3409.8441,1429.1484 L3406.141,1429.1484 Z " fill="#000000"/><text fill="#000000" font-family="sans-serif" font-size="21" font-style="italic" font-weight="bold" lengthAdjust="spacing" textLength="165.0161" x="3434.0377" y="1442.77">OrderRequest</text><line style="stroke:#181818;stroke-width:0.75;" x1="3387.75" x2="3605.562" y1="1459.5" y2="1459.5"/><text fill="#000000" font-family="sans-serif" font-size="21" lengthAdjust="spacing" textLength="202.002" x="3395.25" y="1484.9927">+investor: Investor</text><text fill="#000000" font-family="sans-serif" font-size="21" lengthAdjust="spacing" textLength="189.8101" x="3395.25" y="1509.438">+type: OrderType</text><text fill="#000000" font-family="sans-serif" font-size="21" lengthAdjust="spacing" textLength="202.812" x="3395.25" y="1533.8833">+price: BigDecimal</text><line style="stroke:#181818;stroke-width:0.75;" x1="3387.75" x2="3605.562" y1="1544.8359" y2="1544.8359"/></g><!--class Order--><g class="entity" data-entity="Order" data-source-line="47" data-uid="ent0013" id="entity_Order"><rect fill="#F1F1F1" height="145.3359" rx="3.75" ry="3.75" style="stroke:#181818;stroke-width:0.75;" width="220.812" x="3290.25" y="1125.75"/><ellipse cx="3360.3611" cy="1149.75" fill="#ADD1B2" rx="16.5" ry="16.5" style="stroke:#181818;stroke-width:1.5;"/><path d="M3364.8142,1158.2109 Q3363.947,1158.6563 3362.9861,1158.8672 Q3362.0251,1159.1016 3360.9705,1159.1016 Q3357.2205,1159.1016 3355.2283,1156.6406 Q3353.2595,1154.1563 3353.2595,1149.4688 Q3353.2595,1144.7813 3355.2283,1142.2969 Q3357.2205,1139.8125 3360.9705,1139.8125 Q3362.0251,1139.8125 3362.9861,1140.0469 Q3363.9705,1140.2813 3364.8142,1140.7266 L3364.8142,1144.8047 Q3363.8767,1143.9375 3362.9861,1143.5391 Q3362.0955,1143.1172 3361.158,1143.1172 Q3359.1423,1143.1172 3358.1111,1144.7344 Q3357.0798,1146.3281 3357.0798,1149.4688 Q3357.0798,1152.6094 3358.1111,1154.2266 Q3359.1423,1155.8203 3361.158,1155.8203 Q3362.0955,1155.8203 3362.9861,1155.4219 Q3363.8767,1155 3364.8142,1154.1328 L3364.8142,1158.2109 Z " fill="#000000"/><text fill="#000000" font-family="sans-serif" font-size="21" font-weight="bold" lengthAdjust="spacing" textLength="67.8398" x="3391.1111" y="1157.02">Order</text><line style="stroke:#181818;stroke-width:0.75;" x1="3291.75" x2="3509.562" y1="1173.75" y2="1173.75"/><text fill="#000000" font-family="sans-serif" font-size="21" lengthAdjust="spacing" textLength="202.002" x="3299.25" y="1199.2427">+investor: Investor</text><text fill="#000000" font-family="sans-serif" font-size="21" lengthAdjust="spacing" textLength="189.8101" x="3299.25" y="1223.688">+type: OrderType</text><text fill="#000000" font-family="sans-serif" font-size="21" lengthAdjust="spacing" textLength="202.812" x="3299.25" y="1248.1333">+price: BigDecimal</text><line style="stroke:#181818;stroke-width:0.75;" x1="3291.75" x2="3509.562" y1="1259.0859" y2="1259.0859"/></g><!--class ConditionalOrder--><g class="entity" data-entity="ConditionalOrder" data-source-line="53" data-uid="ent0014" id="entity_ConditionalOrder"><rect fill="#F1F1F1" height="243.1172" rx="3.75" ry="3.75" style="stroke:#181818;stroke-width:0.75;" width="556.9863" x="3563.25" y="1077"/><ellipse cx="3733.9468" cy="1101" fill="#ADD1B2" rx="16.5" ry="16.5" style="stroke:#181818;stroke-width:1.5;"/><path d="M3738.3999,1109.4609 Q3737.5327,1109.9063 3736.5718,1110.1172 Q3735.6108,1110.3516 3734.5562,1110.3516 Q3730.8062,1110.3516 3728.814,1107.8906 Q3726.8452,1105.4063 3726.8452,1100.7188 Q3726.8452,1096.0313 3728.814,1093.5469 Q3730.8062,1091.0625 3734.5562,1091.0625 Q3735.6108,1091.0625 3736.5718,1091.2969 Q3737.5562,1091.5313 3738.3999,1091.9766 L3738.3999,1096.0547 Q3737.4624,1095.1875 3736.5718,1094.7891 Q3735.6812,1094.3672 3734.7437,1094.3672 Q3732.728,1094.3672 3731.6968,1095.9844 Q3730.6655,1097.5781 3730.6655,1100.7188 Q3730.6655,1103.8594 3731.6968,1105.4766 Q3732.728,1107.0703 3734.7437,1107.0703 Q3735.6812,1107.0703 3736.5718,1106.6719 Q3737.4624,1106.25 3738.3999,1105.3828 L3738.3999,1109.4609 Z " fill="#000000"/><text fill="#000000" font-family="sans-serif" font-size="21" font-weight="bold" lengthAdjust="spacing" textLength="202.8428" x="3764.6968" y="1108.27">ConditionalOrder</text><line style="stroke:#181818;stroke-width:0.75;" x1="3564.75" x2="4118.7363" y1="1125" y2="1125"/><text fill="#000000" font-family="sans-serif" font-size="21" lengthAdjust="spacing" textLength="202.002" x="3572.25" y="1150.4927">+investor: Investor</text><text fill="#000000" font-family="sans-serif" font-size="21" lengthAdjust="spacing" textLength="189.8101" x="3572.25" y="1174.938">+type: OrderType</text><text fill="#000000" font-family="sans-serif" font-size="21" lengthAdjust="spacing" textLength="202.812" x="3572.25" y="1199.3833">+price: BigDecimal</text><text fill="#000000" font-family="sans-serif" font-size="21" lengthAdjust="spacing" textLength="273.0615" x="3572.25" y="1223.8286">+triggerPrice: BigDecimal</text><text fill="#000000" font-family="sans-serif" font-size="21" lengthAdjust="spacing" textLength="332.3804" x="3572.25" y="1248.2739">+triggerType: PriceTriggerType</text><line style="stroke:#181818;stroke-width:0.75;" x1="3564.75" x2="4118.7363" y1="1259.2266" y2="1259.2266"/><text fill="#000000" font-family="sans-serif" font-size="21" lengthAdjust="spacing" textLength="538.9863" x="3572.25" y="1284.7192">+shouldTrigger(currentPrice: BigDecimal): Boolean</text><text fill="#000000" font-family="sans-serif" font-size="21" lengthAdjust="spacing" textLength="234.9478" x="3572.25" y="1309.1646">+createOrder(): Order</text></g><!--class OrderType--><g class="entity" data-entity="OrderType" data-source-line="63" data-uid="ent0015" id="entity_OrderType"><rect fill="#F1F1F1" height="120.8906" rx="3.75" ry="3.75" style="stroke:#181818;stroke-width:0.75;" width="173.1284" x="3707.25" y="1423.5"/><ellipse cx="3729.75" cy="1447.5" fill="#EB937F" rx="16.5" ry="16.5" style="stroke:#181818;stroke-width:1.5;"/><path d="M3735.9141,1456.5 L3724.3359,1456.5 L3724.3359,1437.9141 L3735.9141,1437.9141 L3735.9141,1441.1484 L3728.0156,1441.1484 L3728.0156,1445.1563 L3735.1641,1445.1563 L3735.1641,1448.3906 L3728.0156,1448.3906 L3728.0156,1453.2656 L3735.9141,1453.2656 L3735.9141,1456.5 Z " fill="#000000"/><text fill="#000000" font-family="sans-serif" font-size="21" font-weight="bold" lengthAdjust="spacing" textLength="125.1284" x="3750.75" y="1454.77">OrderType</text><line style="stroke:#181818;stroke-width:0.75;" x1="3708.75" x2="3878.8784" y1="1471.5" y2="1471.5"/><text fill="#000000" font-family="sans-serif" font-size="21" lengthAdjust="spacing" textLength="42.605" x="3716.25" y="1496.9927">BUY</text><text fill="#000000" font-family="sans-serif" font-size="21" lengthAdjust="spacing" textLength="49.998" x="3716.25" y="1521.438">SELL</text><line style="stroke:#181818;stroke-width:0.75;" x1="3708.75" x2="3878.8784" y1="1532.3906" y2="1532.3906"/></g><!--class OrderBook--><g class="entity" data-entity="OrderBook" data-source-line="68" data-uid="ent0016" id="entity_OrderBook"><rect fill="#F1F1F1" height="292.0078" rx="3.75" ry="3.75" style="stroke:#181818;stroke-width:0.75;" width="750.1084" x="3289.5" y="669"/><ellipse cx="3594.8459" cy="693" fill="#ADD1B2" rx="16.5" ry="16.5" style="stroke:#181818;stroke-width:1.5;"/><path d="M3599.2991,701.4609 Q3598.4319,701.9063 3597.4709,702.1172 Q3596.51,702.3516 3595.4553,702.3516 Q3591.7053,702.3516 3589.7131,699.8906 Q3587.7444,697.4063 3587.7444,692.7188 Q3587.7444,688.0313 3589.7131,685.5469 Q3591.7053,683.0625 3595.4553,683.0625 Q3596.51,683.0625 3597.4709,683.2969 Q3598.4553,683.5313 3599.2991,683.9766 L3599.2991,688.0547 Q3598.3616,687.1875 3597.4709,686.7891 Q3596.5803,686.3672 3595.6428,686.3672 Q3593.6272,686.3672 3592.5959,687.9844 Q3591.5647,689.5781 3591.5647,692.7188 Q3591.5647,695.8594 3592.5959,697.4766 Q3593.6272,699.0703 3595.6428,699.0703 Q3596.5803,699.0703 3597.4709,698.6719 Q3598.3616,698.25 3599.2991,697.3828 L3599.2991,701.4609 Z " fill="#000000"/><text fill="#000000" font-family="sans-serif" font-size="21" font-weight="bold" lengthAdjust="spacing" textLength="126.6665" x="3625.5959" y="700.27">OrderBook</text><line style="stroke:#181818;stroke-width:0.75;" x1="3291" x2="4038.1084" y1="717" y2="717"/><text fill="#000000" font-family="sans-serif" font-size="21" lengthAdjust="spacing" textLength="273.3486" x="3298.5" y="742.4927">+buyOrders: List&lt;Order&gt;</text><text fill="#000000" font-family="sans-serif" font-size="21" lengthAdjust="spacing" textLength="269.811" x="3298.5" y="766.938">+sellOrders: List&lt;Order&gt;</text><text fill="#000000" font-family="sans-serif" font-size="21" lengthAdjust="spacing" textLength="135.1772" x="3298.5" y="791.3833">-stock: Stock</text><text fill="#000000" font-family="sans-serif" font-size="21" lengthAdjust="spacing" textLength="457.0371" x="3298.5" y="815.8286">-priceTriggerObserver: PriceTriggerListener</text><line style="stroke:#181818;stroke-width:0.75;" x1="3291" x2="4038.1084" y1="826.7813" y2="826.7813"/><text fill="#000000" font-family="sans-serif" font-size="21" lengthAdjust="spacing" textLength="630.1436" x="3298.5" y="852.2739">+placeBuyOrder(investor: Investor, price: BigDecimal): Unit</text><text fill="#000000" font-family="sans-serif" font-size="21" lengthAdjust="spacing" textLength="627.9185" x="3298.5" y="876.7192">+placeSellOrder(investor: Investor, price: BigDecimal): Unit</text><text fill="#000000" font-family="sans-serif" font-size="21" lengthAdjust="spacing" textLength="320.2192" x="3298.5" y="901.1646">+addOrder(order: Order): Unit</text><text fill="#000000" font-family="sans-serif" font-size="21" lengthAdjust="spacing" textLength="360.8965" x="3298.5" y="925.6099">+removeOrder(order: Order): Unit</text><text fill="#000000" font-family="sans-serif" font-size="21" lengthAdjust="spacing" textLength="732.1084" x="3298.5" y="950.0552">+scheduleConditionalOrder(conditionalOrder: ConditionalOrder): Unit</text></g><!--class PriceTriggerListener--><g class="entity" data-entity="PriceTriggerListener" data-source-line="90" data-uid="ent0025" id="entity_PriceTriggerListener"><rect fill="#F1F1F1" height="194.2266" rx="3.75" ry="3.75" style="stroke:#181818;stroke-width:0.75;" width="631.1938" x="4205.25" y="718.5"/><ellipse cx="4392.9272" cy="742.5" fill="#ADD1B2" rx="16.5" ry="16.5" style="stroke:#181818;stroke-width:1.5;"/><path d="M4397.3804,750.9609 Q4396.5132,751.4063 4395.5522,751.6172 Q4394.5913,751.8516 4393.5366,751.8516 Q4389.7866,751.8516 4387.7944,749.3906 Q4385.8257,746.9063 4385.8257,742.2188 Q4385.8257,737.5313 4387.7944,735.0469 Q4389.7866,732.5625 4393.5366,732.5625 Q4394.5913,732.5625 4395.5522,732.7969 Q4396.5366,733.0313 4397.3804,733.4766 L4397.3804,737.5547 Q4396.4429,736.6875 4395.5522,736.2891 Q4394.6616,735.8672 4393.7241,735.8672 Q4391.7085,735.8672 4390.6772,737.4844 Q4389.646,739.0781 4389.646,742.2188 Q4389.646,745.3594 4390.6772,746.9766 Q4391.7085,748.5703 4393.7241,748.5703 Q4394.6616,748.5703 4395.5522,748.1719 Q4396.4429,747.75 4397.3804,746.8828 L4397.3804,750.9609 Z " fill="#000000"/><text fill="#000000" font-family="sans-serif" font-size="21" font-weight="bold" lengthAdjust="spacing" textLength="243.0894" x="4423.6772" y="749.77">PriceTriggerListener</text><line style="stroke:#181818;stroke-width:0.75;" x1="4206.75" x2="4834.9438" y1="766.5" y2="766.5"/><text fill="#000000" font-family="sans-serif" font-size="21" lengthAdjust="spacing" textLength="135.1772" x="4214.25" y="791.9927">-stock: Stock</text><text fill="#000000" font-family="sans-serif" font-size="21" lengthAdjust="spacing" textLength="242.269" x="4214.25" y="816.438">-orderBook: OrderBook</text><text fill="#000000" font-family="sans-serif" font-size="21" lengthAdjust="spacing" textLength="535.2334" x="4214.25" y="840.8833">-scheduledOrders: MutableList&lt;ConditionalOrder&gt;</text><line style="stroke:#181818;stroke-width:0.75;" x1="4206.75" x2="4834.9438" y1="851.8359" y2="851.8359"/><text fill="#000000" font-family="sans-serif" font-size="21" lengthAdjust="spacing" textLength="292.0723" x="4214.25" y="877.3286">+update(stock: Stock): Unit</text><text fill="#000000" font-family="sans-serif" font-size="21" lengthAdjust="spacing" textLength="613.1938" x="4214.25" y="901.7739">+scheduleOrder(conditionalOrder: ConditionalOrder): Unit</text></g><!--class PriceTriggerType--><g class="entity" data-entity="PriceTriggerType" data-source-line="98" data-uid="ent0026" id="entity_PriceTriggerType"><rect fill="#F1F1F1" height="120.8906" rx="3.75" ry="3.75" style="stroke:#181818;stroke-width:0.75;" width="251.4683" x="4309.5" y="1137.75"/><ellipse cx="4332" cy="1161.75" fill="#EB937F" rx="16.5" ry="16.5" style="stroke:#181818;stroke-width:1.5;"/><path d="M4338.1641,1170.75 L4326.5859,1170.75 L4326.5859,1152.1641 L4338.1641,1152.1641 L4338.1641,1155.3984 L4330.2656,1155.3984 L4330.2656,1159.4063 L4337.4141,1159.4063 L4337.4141,1162.6406 L4330.2656,1162.6406 L4330.2656,1167.5156 L4338.1641,1167.5156 L4338.1641,1170.75 Z " fill="#000000"/><text fill="#000000" font-family="sans-serif" font-size="21" font-weight="bold" lengthAdjust="spacing" textLength="203.4683" x="4353" y="1169.02">PriceTriggerType</text><line style="stroke:#181818;stroke-width:0.75;" x1="4311" x2="4559.4683" y1="1185.75" y2="1185.75"/><text fill="#000000" font-family="sans-serif" font-size="21" lengthAdjust="spacing" textLength="222.5405" x="4318.5" y="1211.2427">GREATER_OR_EQUAL</text><text fill="#000000" font-family="sans-serif" font-size="21" lengthAdjust="spacing" textLength="174.9829" x="4318.5" y="1235.688">LESS_OR_EQUAL</text><line style="stroke:#181818;stroke-width:0.75;" x1="4311" x2="4559.4683" y1="1246.6406" y2="1246.6406"/></g><!--class StockMarket--><g class="entity" data-entity="StockMarket" data-source-line="109" data-uid="ent0031" id="entity_StockMarket"><rect fill="#F1F1F1" height="267.5625" rx="3.75" ry="3.75" style="stroke:#181818;stroke-width:0.75;" width="774.4922" x="1146" y="279"/><ellipse cx="1452.033" cy="303" fill="#ADD1B2" rx="16.5" ry="16.5" style="stroke:#181818;stroke-width:1.5;"/><path d="M1456.4861,311.4609 Q1455.6189,311.9063 1454.658,312.1172 Q1453.697,312.3516 1452.6423,312.3516 Q1448.8923,312.3516 1446.9001,309.8906 Q1444.9314,307.4063 1444.9314,302.7188 Q1444.9314,298.0313 1446.9001,295.5469 Q1448.8923,293.0625 1452.6423,293.0625 Q1453.697,293.0625 1454.658,293.2969 Q1455.6423,293.5313 1456.4861,293.9766 L1456.4861,298.0547 Q1455.5486,297.1875 1454.658,296.7891 Q1453.7673,296.3672 1452.8298,296.3672 Q1450.8142,296.3672 1449.783,297.9844 Q1448.7517,299.5781 1448.7517,302.7188 Q1448.7517,305.8594 1449.783,307.4766 Q1450.8142,309.0703 1452.8298,309.0703 Q1453.7673,309.0703 1454.658,308.6719 Q1455.5486,308.25 1456.4861,307.3828 L1456.4861,311.4609 Z " fill="#000000"/><text fill="#000000" font-family="sans-serif" font-size="21" font-weight="bold" lengthAdjust="spacing" textLength="149.6763" x="1482.783" y="310.27">StockMarket</text><line style="stroke:#181818;stroke-width:0.75;" x1="1147.5" x2="1918.9922" y1="327" y2="327"/><text fill="#000000" font-family="sans-serif" font-size="21" lengthAdjust="spacing" textLength="386.2646" x="1155" y="352.4927">-stocks: MutableMap&lt;String, Stock&gt;</text><text fill="#000000" font-family="sans-serif" font-size="21" lengthAdjust="spacing" textLength="493.3564" x="1155" y="376.938">-orderBooks: MutableMap&lt;String, OrderBook&gt;</text><line style="stroke:#181818;stroke-width:0.75;" x1="1147.5" x2="1918.9922" y1="387.8906" y2="387.8906"/><text fill="#000000" font-family="sans-serif" font-size="21" lengthAdjust="spacing" textLength="427.2085" x="1155" y="413.3833">+registerStock(stock: Stock): OrderBook</text><text fill="#000000" font-family="sans-serif" font-size="21" lengthAdjust="spacing" textLength="350.7144" x="1155" y="437.8286">+getStock(symbol: String): Stock</text><text fill="#000000" font-family="sans-serif" font-size="21" lengthAdjust="spacing" textLength="459.0981" x="1155" y="462.2739">+getOrderBook(symbol: String): OrderBook</text><text fill="#000000" font-family="sans-serif" font-size="21" lengthAdjust="spacing" textLength="701.5313" x="1155" y="486.7192">+subscribeToStock(symbol: String, observer: StockObserver): Unit</text><text fill="#000000" font-family="sans-serif" font-size="21" lengthAdjust="spacing" textLength="756.4922" x="1155" y="511.1646">+unsubscribeFromStock(symbol: String, observer: StockObserver): Unit</text><text fill="#000000" font-family="sans-serif" font-size="21" lengthAdjust="spacing" textLength="394.8882" x="1155" y="535.6099">+processOrders(symbol: String): Unit</text></g><g class="entity" data-entity="TradeMatcher" data-source-line="120" data-uid="ent0032" id="entity_TradeMatcher"><rect fill="#F1F1F1" height="66.8906" rx="3.75" ry="3.75" style="stroke:#181818;stroke-width:0.75;" width="624.1494" x="1221" y="781.5"/><text fill="#000000" font-family="sans-serif" font-size="21" lengthAdjust="spacing" textLength="146.2104" x="1459.9695" y="803.9927">TradeMatcher</text><line style="stroke:#181818;stroke-width:0.75;" x1="1222.5" x2="1843.6494" y1="811.9453" y2="811.9453"/><text fill="#000000" font-family="sans-serif" font-size="21" lengthAdjust="spacing" textLength="606.1494" x="1230" y="837.438">+findMatch(orderBook: OrderBook): Pair&lt;Order, Order&gt;?</text></g><g class="entity" data-entity="NotificationService" data-source-line="130" data-uid="ent0037" id="entity_NotificationService"><rect fill="#F1F1F1" height="213.5625" rx="3.75" ry="3.75" style="stroke:#181818;stroke-width:0.75;" width="992.6646" x="69" y="306"/><text fill="#000000" font-family="sans-serif" font-size="21" lengthAdjust="spacing" textLength="198.1055" x="466.2795" y="328.4927">NotificationService</text><line style="stroke:#181818;stroke-width:0.75;" x1="70.5" x2="1060.1646" y1="336.4453" y2="336.4453"/><text fill="#000000" font-family="sans-serif" font-size="21" lengthAdjust="spacing" textLength="511.7827" x="78" y="361.938">+orderPlaced(order: Order, symbol: String): Unit</text><text fill="#000000" font-family="sans-serif" font-size="21" lengthAdjust="spacing" textLength="790.8428" x="78" y="386.3833">+orderScheduled(conditionalOrder: ConditionalOrder, symbol: String): Unit</text><text fill="#000000" font-family="sans-serif" font-size="21" lengthAdjust="spacing" textLength="842.2046" x="78" y="410.8286">+conditionalTriggered(conditionalOrder: ConditionalOrder, symbol: String): Unit</text><text fill="#000000" font-family="sans-serif" font-size="21" lengthAdjust="spacing" textLength="868.2188" x="78" y="435.2739">+subscribed(investorName: String, symbol: String, currentPrice: BigDecimal): Unit</text><text fill="#000000" font-family="sans-serif" font-size="21" lengthAdjust="spacing" textLength="620.3511" x="78" y="459.7192">+unsubscribed(investorName: String, symbol: String): Unit</text><text fill="#000000" font-family="sans-serif" font-size="21" lengthAdjust="spacing" textLength="862.5688" x="78" y="484.1646">+priceUpdated(investorName: String, symbol: String, newPrice: BigDecimal): Unit</text><text fill="#000000" font-family="sans-serif" font-size="21" lengthAdjust="spacing" textLength="974.6646" x="78" y="508.6099">+matchExecuted(buyOrder: Order, sellOrder: Order, symbol: String, price: BigDecimal): Unit</text></g><g class="entity" data-entity="NoteNS" data-source-line="141" data-uid="ent0038" id="entity_NoteNS"><path d="M390,9 L390,92.0977 A0,0 0 0 0 390,92.0977 L559.5,92.0977 L565.5,305.955 L571.5,92.0977 L740.8696,92.0977 A0,0 0 0 0 740.8696,92.0977 L740.8696,24 L725.8696,9 L390,9 A0,0 0 0 0 390,9" fill="#FEFFDD" style="stroke:#181818;stroke-width:0.75;"/><path d="M725.8696,9 L725.8696,24 L740.8696,24 L725.8696,9" fill="#FEFFDD" style="stroke:#181818;stroke-width:0.75;"/><text fill="#000000" font-family="sans-serif" font-size="19.5" lengthAdjust="spacing" textLength="243.6548" x="399" y="34.6003">Used by: Stock, Investor,</text><text fill="#000000" font-family="sans-serif" font-size="19.5" lengthAdjust="spacing" textLength="319.3696" x="399" y="57.2996">OrderBook, PriceTriggerListener,</text><text fill="#000000" font-family="sans-serif" font-size="19.5" lengthAdjust="spacing" textLength="121.6941" x="399" y="79.9988">StockMarket</text></g><!--link Stock to StockSubject--><g class="link" data-entity-1="Stock" data-entity-2="StockSubject" data-source-line="28" data-uid="lnk7" id="link_Stock_StockSubject"><path codeLine="28" d="M2443.665,961.59 C2386.8,1022.67 2342.1845,1070.6049 2298.3695,1117.6599" fill="none" id="Stock-to-StockSubject" style="stroke:#181818;stroke-width:1.5;stroke-dasharray:10.5,10.5;"/><polygon fill="none" points="2279.97,1137.42,2304.9561,1123.7931,2291.7828,1111.5268,2279.97,1137.42" style="stroke:#181818;stroke-width:1.5;"/></g><!--link Investor to StockObserver--><g class="link" data-entity-1="Investor" data-entity-2="StockObserver" data-source-line="37" data-uid="lnk10" id="link_Investor_StockObserver"><path codeLine="37" d="M2987.625,876.165 C2908.875,951.78 2793.9354,1062.1545 2721.9354,1131.2895" fill="none" id="Investor-to-StockObserver" style="stroke:#181818;stroke-width:1.5;stroke-dasharray:10.5,10.5;"/><polygon fill="none" points="2702.46,1149.99,2728.1689,1137.7813,2715.7019,1124.7977,2702.46,1149.99" style="stroke:#181818;stroke-width:1.5;"/></g><!--link Order to OrderRequest--><g class="link" data-entity-1="Order" data-entity-2="OrderRequest" data-source-line="80" data-uid="lnk17" id="link_Order_OrderRequest"><path codeLine="80" d="M3424.725,1271.355 C3439.275,1314.21 3449.0367,1343.0061 3463.6017,1385.8611" fill="none" id="Order-to-OrderRequest" style="stroke:#181818;stroke-width:1.5;stroke-dasharray:10.5,10.5;"/><polygon fill="none" points="3472.29,1411.425,3472.123,1382.965,3455.0804,1388.7572,3472.29,1411.425" style="stroke:#181818;stroke-width:1.5;"/></g><!--link ConditionalOrder to OrderRequest--><g class="link" data-entity-1="ConditionalOrder" data-entity-2="OrderRequest" data-source-line="81" data-uid="lnk18" id="link_ConditionalOrder_OrderRequest"><path codeLine="81" d="M3694.695,1320.315 C3656.91,1351.29 3638.3273,1366.5149 3604.6523,1394.1149" fill="none" id="ConditionalOrder-to-OrderRequest" style="stroke:#181818;stroke-width:1.5;stroke-dasharray:10.5,10.5;"/><polygon fill="none" points="3583.77,1411.23,3610.3574,1401.0756,3598.9473,1387.1541,3583.77,1411.23" style="stroke:#181818;stroke-width:1.5;"/></g><!--link Order to OrderType--><g class="link" data-entity-1="Order" data-entity-2="OrderType" data-source-line="82" data-uid="lnk19" id="link_Order_OrderType"><path codeLine="82" d="M3477.42,1271.325 C3496.425,1287.9 3517.05,1305.045 3537,1320 C3591.435,1360.815 3648.4384,1397.1615 3699.2434,1427.8065" fill="none" id="Order-to-OrderType" style="stroke:#181818;stroke-width:1.5;"/><polygon fill="#181818" points="3706.95,1432.455,3698.4892,1420.3445,3700.5279,1428.5812,3692.2911,1430.6199,3706.95,1432.455" style="stroke:#181818;stroke-width:1.5;"/></g><!--link ConditionalOrder to OrderType--><g class="link" data-entity-1="ConditionalOrder" data-entity-2="OrderType" data-source-line="83" data-uid="lnk20" id="link_ConditionalOrder_OrderType"><path codeLine="83" d="M3821.07,1320.315 C3815.025,1355.94 3810.172,1384.5221 3805.087,1414.4621" fill="none" id="ConditionalOrder-to-OrderType" style="stroke:#181818;stroke-width:1.5;"/><polygon fill="#181818" points="3803.58,1423.335,3811.7558,1411.0302,3804.8358,1415.9409,3799.9252,1409.0209,3803.58,1423.335" style="stroke:#181818;stroke-width:1.5;"/></g><!--link OrderBook to Stock--><g class="link" data-entity-1="OrderBook" data-entity-2="Stock" data-source-line="84" data-uid="lnk21" id="link_OrderBook_Stock"><path codeLine="84" d="M3434.085,668.805 C3280.935,590.1 3075.66,520.275 2895.75,579.75 C2838.27,598.755 2789.9132,627.2242 2741.7932,663.4792" fill="none" id="OrderBook-to-Stock" style="stroke:#181818;stroke-width:1.5;"/><polygon fill="#181818" points="2734.605,668.895,2748.9977,665.5635,2740.5951,664.3819,2741.7767,655.9793,2734.605,668.895" style="stroke:#181818;stroke-width:1.5;"/></g><!--link OrderBook to Order--><g class="link" data-entity-1="OrderBook" data-entity-2="Order" data-source-line="85" data-uid="lnk22" id="link_OrderBook_Order"><path codeLine="85" d="M3563.94,961.59 C3525.03,1017.63 3487.3984,1071.8425 3455.3584,1117.9825" fill="none" id="OrderBook-to-Order" style="stroke:#181818;stroke-width:1.5;stroke-dasharray:10.5,10.5;"/><polygon fill="#181818" points="3450.225,1125.375,3462.8534,1117.7086,3454.5028,1119.2146,3452.9968,1110.8641,3450.225,1125.375" style="stroke:#181818;stroke-width:1.5;"/><text fill="#000000" font-family="sans-serif" font-size="19.5" lengthAdjust="spacing" textLength="163.6934" x="3534" y="1026.1003">creates/removes</text></g><!--link OrderBook to ConditionalOrder--><g class="link" data-entity-1="OrderBook" data-entity-2="ConditionalOrder" data-source-line="86" data-uid="lnk23" id="link_OrderBook_ConditionalOrder"><path codeLine="86" d="M3731.925,961.59 C3749.61,999.585 3764.683,1031.9702 3781.693,1068.5252" fill="none" id="OrderBook-to-ConditionalOrder" style="stroke:#181818;stroke-width:1.5;stroke-dasharray:10.5,10.5;"/><polygon fill="#181818" points="3785.49,1076.685,3785.2344,1061.9139,3782.3258,1069.8851,3774.3546,1066.9766,3785.49,1076.685" style="stroke:#181818;stroke-width:1.5;"/><text fill="#000000" font-family="sans-serif" font-size="19.5" lengthAdjust="spacing" textLength="97.5476" x="3765" y="1026.1003">schedules</text></g><!--link PriceTriggerListener to StockObserver--><g class="link" data-entity-1="PriceTriggerListener" data-entity-2="StockObserver" data-source-line="103" data-uid="lnk27" id="link_PriceTriggerListener_StockObserver"><path codeLine="103" d="M4307.55,912.18 C4255.185,931.83 4198.62,950.01 4144.5,961.5 C3761.835,1042.695 3650.61,937.83 3265.5,1006.5 C3089.67,1037.85 2919.0404,1095.2966 2797.3454,1140.8666" fill="none" id="PriceTriggerListener-to-StockObserver" style="stroke:#181818;stroke-width:1.5;stroke-dasharray:10.5,10.5;"/><polygon fill="none" points="2772.06,1150.335,2800.5015,1149.2951,2794.1892,1132.4382,2772.06,1150.335" style="stroke:#181818;stroke-width:1.5;"/></g><!--link PriceTriggerListener to PriceTriggerType--><g class="link" data-entity-1="PriceTriggerListener" data-entity-2="PriceTriggerType" data-source-line="104" data-uid="lnk28" id="link_PriceTriggerListener_PriceTriggerType"><path codeLine="104" d="M4499.535,912.21 C4483.605,983.055 4464.353,1068.6539 4450.808,1128.9389" fill="none" id="PriceTriggerListener-to-PriceTriggerType" style="stroke:#181818;stroke-width:1.5;"/><polygon fill="#181818" points="4448.835,1137.72,4457.6485,1125.8637,4450.4791,1130.4024,4445.9404,1123.2331,4448.835,1137.72" style="stroke:#181818;stroke-width:1.5;"/></g><!--link ConditionalOrder to PriceTriggerType--><g class="link" data-entity-1="ConditionalOrder" data-entity-2="PriceTriggerType" data-source-line="105" data-uid="lnk29" id="link_ConditionalOrder_PriceTriggerType"><path codeLine="105" d="M4119.93,1198.5 C4183.005,1198.5 4237.08,1198.5 4300.155,1198.5" fill="none" id="ConditionalOrder-to-PriceTriggerType" style="stroke:#181818;stroke-width:1.5;"/><polygon fill="#181818" points="4309.155,1198.5,4295.655,1192.5,4301.655,1198.5,4295.655,1204.5,4309.155,1198.5" style="stroke:#181818;stroke-width:1.5;"/></g><!--link StockMarket to TradeMatcher--><g class="link" data-entity-1="StockMarket" data-entity-2="TradeMatcher" data-source-line="124" data-uid="lnk33" id="link_StockMarket_TradeMatcher"><path codeLine="124" d="M1533,546 C1533,629.235 1533,721.29 1533,772.155" fill="none" id="StockMarket-to-TradeMatcher" style="stroke:#181818;stroke-width:1.5;"/><polygon fill="#181818" points="1533,781.155,1539,767.655,1533,773.655,1527,767.655,1533,781.155" style="stroke:#181818;stroke-width:1.5;"/></g><!--link StockMarket to Stock--><g class="link" data-entity-1="StockMarket" data-entity-2="Stock" data-source-line="125" data-uid="lnk34" id="link_StockMarket_Stock"><path codeLine="125" d="M1878.24,546 C2032.29,604.905 2201.2585,669.5058 2338.9585,722.1558" fill="none" id="StockMarket-to-Stock" style="stroke:#181818;stroke-width:1.5;"/><polygon fill="#181818" points="2347.365,725.37,2336.8981,714.9443,2340.3596,722.6915,2332.6125,726.153,2347.365,725.37" style="stroke:#181818;stroke-width:1.5;"/></g><!--link StockMarket to OrderBook--><g class="link" data-entity-1="StockMarket" data-entity-2="OrderBook" data-source-line="126" data-uid="lnk35" id="link_StockMarket_OrderBook"><path codeLine="126" d="M1920.42,420.66 C2269.02,435.255 2792.1,478.68 3229.5,604.5 C3286.08,620.775 3336.1647,640.1442 3390.9597,665.1042" fill="none" id="StockMarket-to-OrderBook" style="stroke:#181818;stroke-width:1.5;"/><polygon fill="#181818" points="3399.15,668.835,3389.3518,657.7786,3392.3247,665.726,3384.3773,668.699,3399.15,668.835" style="stroke:#181818;stroke-width:1.5;"/></g><!--reverse link Stock to Order--><g class="link" data-entity-1="Stock" data-entity-2="Order" data-source-line="144" data-uid="lnk40" id="link_Stock_Order"><path codeLine="144" d="M2825.7547,940.692 C2845.9747,950.502 2849.97,952.32 2869.5,961.5 C3013.695,1029.3 3182.175,1103.115 3290.025,1149.69" fill="none" id="Stock-backto-Order" style="stroke:#181818;stroke-width:1.5;"/><polygon fill="none" points="2809.56,932.835,2815.0383,942.1617,2825.7547,940.692,2820.2763,931.3653,2809.56,932.835" style="stroke:#181818;stroke-width:1.5;"/><text fill="#000000" font-family="sans-serif" font-size="19.5" lengthAdjust="spacing" textLength="82.5417" x="3015" y="1026.1003">contains</text><text fill="#000000" font-family="sans-serif" font-size="19.5" lengthAdjust="spacing" textLength="12.4065" x="2821.7932" y="933.9361">1</text><text fill="#000000" font-family="sans-serif" font-size="19.5" lengthAdjust="spacing" textLength="34.5535" x="3243.7384" y="1139.7703">0..*</text></g><!--reverse link Stock to StockObserver--><g class="link" data-entity-1="Stock" data-entity-2="StockObserver" data-source-line="145" data-uid="lnk41" id="link_Stock_StockObserver"><path codeLine="145" d="M2610.5564,979.2501 C2623.7564,1046.2101 2635.05,1103.445 2644.305,1150.41" fill="none" id="Stock-backto-StockObserver" style="stroke:#181818;stroke-width:1.5;"/><polygon fill="none" points="2607.075,961.59,2602.929,971.5805,2610.5564,979.2501,2614.7024,969.2596,2607.075,961.59" style="stroke:#181818;stroke-width:1.5;"/><text fill="#000000" font-family="sans-serif" font-size="19.5" lengthAdjust="spacing" textLength="71.792" x="2620.5" y="1026.1003">notifies</text><text fill="#000000" font-family="sans-serif" font-size="19.5" lengthAdjust="spacing" textLength="12.4065" x="2596.7469" y="991.2887">1</text><text fill="#000000" font-family="sans-serif" font-size="19.5" lengthAdjust="spacing" textLength="34.5535" x="2604.4003" y="1133.7461">0..*</text></g><!--link PriceTriggerListener to OrderBook--><g class="link" data-entity-1="PriceTriggerListener" data-entity-2="OrderBook" data-source-line="146" data-uid="lnk42" id="link_PriceTriggerListener_OrderBook"><path codeLine="146" d="M4205.1,815.25 C4149.945,815.25 4103.79,815.25 4048.635,815.25" fill="none" id="PriceTriggerListener-to-OrderBook" style="stroke:#181818;stroke-width:1.5;"/><polygon fill="#181818" points="4039.635,815.25,4053.135,821.25,4047.135,815.25,4053.135,809.25,4039.635,815.25" style="stroke:#181818;stroke-width:1.5;"/></g><!--SRC=[lLV1RkCs4BthAmYVbAxjxXvw4G8NIUij5d3YDB8F1GeiQ6dYi959bQJITTlyUocAaaYHSjmshG-9n7cSuSoy6Ov4XWj07-RVH95u8hJ471zGLc0XhgJaP5T9-9GncfBV0RqVGZuoAbDvL0fshCYZgCJP4zu3cWZ9iYVuaZrYkeUvVfkWFoAaVeHAu0yu0vJMoscr-mKoQOJrxnt2KkBiCMOx0VmPUD8Wr-Rr8a5RIgI5p-5S_4iKEaEBT0vHbJcM4Ekp6uq1JJeCZTJPBOu75P9w7oTqRmcoYdEWyewJ319qJVRVGqOEkF0XQvu35mbQ4I4lzSl2EvvM4rFupTFdHmddkTOIi_flWlIB3-DmOC_mEdA6sdYhCzvK4kyAI45UEX5Ts73ZZy66t9eXoYHvE5uLHQj1n86eD_6Up_zSE2IANaOfIEWpg1NUih39soUpwgIEuWC44dSU7pgD_U5QJqwSJeV6Bn0TdNlujL8gdIEstYITFKieZoMOd6tKeoKfWwHpcAot_K-slcCq9v8mYel_sApPnSb-3_pkTSX6wzV0JRzYb_SZguhSoEAncbRyk6Qi04pjwkQWUDJKruLnmeuDqEhGksR5v7hxK_USBbUhaUGfYsuhsbN7qwr4G56SHfI5ekErqHFxgPdwSVSRYrQIjhR-gPOtxcBA- -mHygg08HlZRB2GU8JrMwBT7QpbqcBIkhkbR7xLSGVgCg4f2jr8x4wWPLxjX66DR3PR38h5s-v3UZBLijwZVdq-DtjGObWjlcxYBW98psJIXLwSQ8sc8js-7OhStxcytSo_URfPwtZIny3UPUpcwy2DE3Iwy7h3i2rPZlzmlxpQBEy_h-y_Bt_SNgqwmMgPfkwgqHYCPE3k6iNMv0WsoY35FEHuuji7D_FwL3UOFu5x8tBOroVYMZxCkv-4TsWFqc2TIUrYc4sDx1Juw91kKUr4fcPdsB2GZIawUxAjQAVh8sU7Vwcjv2m38HhQ-Qw4oDspymQNbwr5RMSHOdmOtmN9OJDh9lyDnxb2IrKLRX4_49hhzJXKKEh0TvZmvh8o9XRVUbEYuKfDFjjG4D1dVYZfipnEM3swaWpNd6z9QroyjKIfIeug0iTJxTzTVJ_cpcqrHQUJP7QcRKCveuczhjBIOIhrZHHtLCwxo__MchM72gRen5mrNYVdAGyLXxAorVV6kUSxxxlhK3Dk-GMogjRSJcDzXjk9Q2Jdhqn5BpKZ5VKK7RS2ShGxcZOmxUUgdsd7tscmYok4nVW9mgAcBDocKVDFtGWX3aTHyo4s-J11R3P3a_Vp-LUJVYPWL692HHZbVdadpPSVKRF0w3NJEV4N]--></g></svg>